@startuml LogicClassDiagram
!include style.puml
skinparam arrowThickness 1.1
skinparam arrowColor LOGIC_COLOR_T4
skinparam classBackgroundColor LOGIC_COLOR

title Logic Class Diagram

package Logic as LogicPackage {

package "Parser Classes" as ParserClasses{
}
class XYZCommand
class CommandResult
class "{abstract}\nCommand" as Command


class "<<interface>>\nLogic" as Logic
class LogicManager
}

package Model {
class HiddenModel #FFFFFF
}

package Storage {
}

class HiddenOutside #FFFFFF
HiddenOutside ..> Logic

LogicManager .right.|> Logic
LogicManager -right-> "1" ParserClasses
ParserClasses ..> XYZCommand : <<create>>

XYZCommand -up-|> Command
LogicManager .left.> Command : <<call>>

LogicManager --> Model
LogicManager --> Storage
Storage --[hidden] Model
Command .[hidden]up.> Storage
Command .right.> Model
note right of XYZCommand: XYZCommand = AddCommand, \nFindCommand, etc

Logic ..> CommandResult
LogicManager .down.> CommandResult
Command .up.> CommandResult : <<create>>
@enduml
