@startuml ModelClassDiagram
!include style.puml
skinparam arrowThickness 1.1
skinparam arrowColor MODEL_COLOR
skinparam classBackgroundColor MODEL_COLOR

title Model Class Diagram

package Model as ModelPackage <<Rectangle>> {
class "<<interface>>\nReadOnlyAddressBook" as ReadOnlyAddressBook
class "<<interface>>\nReadOnlyUserPrefs" as ReadOnlyUserPrefs
class "<<interface>>\nModel" as Model
class AddressBook
class ModelManager
class UserPrefs

class UniquePersonList
class Person
class Address
class Email
class Name
class Phone
class Tag
class Transaction

class I #FFFFFF
}

class HiddenOutside #FFFFFF
HiddenOutside ..> Model

AddressBook .up.|> ReadOnlyAddressBook

ModelManager .up.|> Model
Model .right.> ReadOnlyUserPrefs
Model .left.> ReadOnlyAddressBook
ModelManager -left-> "1" AddressBook
ModelManager -right-> "1" UserPrefs
UserPrefs .up.|> ReadOnlyUserPrefs

AddressBook *--> "1" UniquePersonList
UniquePersonList --> "~* all" Person
Person *--> Name
Person *--> Phone
Person *--> Email
Person *--> Address
Person *--> "*" Tag

Person *-right-> "~* transactions" Transaction
Transaction "*" -up-> "1" Person : debtor
Transaction "*" -up-> "1" Person : creditor

Person -[hidden]up--> I
UniquePersonList -[hidden]right-> I

Name -[hidden]right-> Phone
Phone -[hidden]right-> Address
Address -[hidden]right-> Email

ModelManager --> "~* filtered" Person
@enduml
